<?xml version="1.0" standalone="no"?><!DOCTYPE svg PUBLIC "-//W3C//DTD SVG 1.1//EN" "http://www.w3.org/Graphics/SVG/1.1/DTD/svg11.dtd"><svg xmlns:xlink="http://www.w3.org/1999/xlink" version="1.1" class="highcharts-root" style="font-family:&quot;Lucida Grande&quot;, &quot;Lucida Sans Unicode&quot;, Arial, Helvetica, sans-serif;font-size:12px;" xmlns="http://www.w3.org/2000/svg" width="600" height="400"><desc>Created with Highcharts 9.3.2</desc><defs><clipPath id="highcharts-sl201gc-14-"><rect x="0" y="0" width="532" height="277" fill="none"></rect></clipPath><clipPath id="highcharts-sl201gc-19-"><rect x="0" y="0" width="532" height="277" fill="none"></rect></clipPath></defs><rect fill="#ffffff" class="highcharts-background" x="0" y="0" width="600" height="400" rx="0" ry="0"></rect><rect fill="none" class="highcharts-plot-background" x="58" y="47" width="532" height="277"></rect><g class="highcharts-pane-group" data-z-index="0"></g><g class="highcharts-grid highcharts-xaxis-grid" data-z-index="1"><path fill="none" stroke-dasharray="none" data-z-index="1" class="highcharts-grid-line" d="M 190.5 47 L 190.5 324" opacity="1"></path><path fill="none" stroke-dasharray="none" data-z-index="1" class="highcharts-grid-line" d="M 323.5 47 L 323.5 324" opacity="1"></path><path fill="none" stroke-dasharray="none" data-z-index="1" class="highcharts-grid-line" d="M 456.5 47 L 456.5 324" opacity="1"></path><path fill="none" stroke-dasharray="none" data-z-index="1" class="highcharts-grid-line" d="M 589.5 47 L 589.5 324" opacity="1"></path><path fill="none" stroke-dasharray="none" data-z-index="1" class="highcharts-grid-line" d="M 57.5 47 L 57.5 324" opacity="1"></path></g><g class="highcharts-grid highcharts-yaxis-grid" data-z-index="1"><path fill="none" stroke="#e6e6e6" stroke-width="1" stroke-dasharray="none" data-z-index="1" class="highcharts-grid-line" d="M 58 324.5 L 590 324.5" opacity="1"></path><path fill="none" stroke="#e6e6e6" stroke-width="1" stroke-dasharray="none" data-z-index="1" class="highcharts-grid-line" d="M 58 278.5 L 590 278.5" opacity="1"></path><path fill="none" stroke="#e6e6e6" stroke-width="1" stroke-dasharray="none" data-z-index="1" class="highcharts-grid-line" d="M 58 232.5 L 590 232.5" opacity="1"></path><path fill="none" stroke="#e6e6e6" stroke-width="1" stroke-dasharray="none" data-z-index="1" class="highcharts-grid-line" d="M 58 186.5 L 590 186.5" opacity="1"></path><path fill="none" stroke="#e6e6e6" stroke-width="1" stroke-dasharray="none" data-z-index="1" class="highcharts-grid-line" d="M 58 139.5 L 590 139.5" opacity="1"></path><path fill="none" stroke="#e6e6e6" stroke-width="1" stroke-dasharray="none" data-z-index="1" class="highcharts-grid-line" d="M 58 93.5 L 590 93.5" opacity="1"></path><path fill="none" stroke="#e6e6e6" stroke-width="1" stroke-dasharray="none" data-z-index="1" class="highcharts-grid-line" d="M 58 46.5 L 590 46.5" opacity="1"></path></g><rect fill="none" class="highcharts-plot-border" data-z-index="1" x="58" y="47" width="532" height="277"></rect><g class="highcharts-axis highcharts-xaxis" data-z-index="2"><path fill="none" class="highcharts-axis-line" stroke="#ccd6eb" stroke-width="1" data-z-index="7" d="M 58 324.5 L 590 324.5"></path></g><g class="highcharts-axis highcharts-yaxis" data-z-index="2"><text x="26" data-z-index="7" text-anchor="middle" transform="translate(0,0) rotate(270 26 185.5)" class="highcharts-axis-title" style="color:#666666;fill:#666666;" y="185.5">Values</text><path fill="none" class="highcharts-axis-line" data-z-index="7" d="M 58 47 L 58 324"></path></g><g class="highcharts-series-group" data-z-index="3"><g class="highcharts-series highcharts-series-0 highcharts-line-series highcharts-color-0" data-z-index="0.1" opacity="1" transform="translate(58,47) scale(1 1)" clip-path="url(#highcharts-sl201gc-19-)"><path fill="none" d="M 66.5 230.83333333333334 L 199.5 138.5 L 332.5 184.66666666666669 L 465.5 92.33333333333334" class="highcharts-graph" data-z-index="1" stroke="#7cb5ec" stroke-width="2" stroke-linejoin="round" stroke-linecap="round"></path></g><g class="highcharts-markers highcharts-series-0 highcharts-line-series highcharts-color-0" data-z-index="0.1" opacity="1" transform="translate(58,47) scale(1 1)" clip-path="none"><path fill="#7cb5ec" d="M 66 235 A 4 4 0 1 1 66.00399999933333 234.99999800000018 Z" opacity="1" class="highcharts-point highcharts-color-0"></path><path fill="#7cb5ec" d="M 199 143 A 4 4 0 1 1 199.00399999933333 142.99999800000018 Z" opacity="1" class="highcharts-point highcharts-color-0"></path><path fill="#7cb5ec" d="M 332 189 A 4 4 0 1 1 332.00399999933336 188.99999800000018 Z" opacity="1" class="highcharts-point highcharts-color-0"></path><path fill="#7cb5ec" d="M 465 96 A 4 4 0 1 1 465.00399999933336 95.99999800000016 Z" opacity="1" class="highcharts-point highcharts-color-0"></path></g><g class="highcharts-series highcharts-series-1 highcharts-line-series highcharts-color-1" data-z-index="0.1" opacity="1" transform="translate(58,47) scale(1 1)" clip-path="url(#highcharts-sl201gc-19-)"><path fill="none" d="M 66.5 46.166666666666686 L 199.5 138.5 L 332.5 92.33333333333334 L 465.5 184.66666666666669" class="highcharts-graph" data-z-index="1" stroke="#434348" stroke-width="2" stroke-linejoin="round" stroke-linecap="round"></path></g><g class="highcharts-markers highcharts-series-1 highcharts-line-series highcharts-color-1" data-z-index="0.1" opacity="1" transform="translate(58,47) scale(1 1)" clip-path="none"><path fill="#434348" d="M 66 42 L 70 46 L 66 50 L 62 46 Z" opacity="1" class="highcharts-point highcharts-color-1"></path><path fill="#434348" d="M 199 135 L 203 139 L 199 143 L 195 139 Z" opacity="1" class="highcharts-point highcharts-color-1"></path><path fill="#434348" d="M 332 88 L 336 92 L 332 96 L 328 92 Z" opacity="1" class="highcharts-point highcharts-color-1"></path><path fill="#434348" d="M 465 181 L 469 185 L 465 189 L 461 185 Z" opacity="1" class="highcharts-point highcharts-color-1"></path></g></g><text x="300" text-anchor="middle" class="highcharts-title" data-z-index="4" style="color:#333333;font-size:18px;fill:#333333;" y="24">My Chart</text><text x="300" text-anchor="middle" class="highcharts-subtitle" data-z-index="4" style="color:#666666;fill:#666666;" y="46"></text><text x="10" text-anchor="start" class="highcharts-caption" data-z-index="4" style="color:#666666;fill:#666666;" y="397"></text><g class="highcharts-legend highcharts-no-tooltip" data-z-index="7" transform="translate(207,359)"><rect fill="none" class="highcharts-legend-box" rx="0" ry="0" x="0" y="0" width="186" height="26" visibility="visible"></rect><g data-z-index="1"><g><g class="highcharts-legend-item highcharts-line-series highcharts-color-0 highcharts-series-0" data-z-index="1" transform="translate(8,3)"><path fill="none" d="M 0 11 L 16 11" class="highcharts-graph" stroke="#7cb5ec" stroke-width="2"></path><path fill="#7cb5ec" d="M 8 15 A 4 4 0 1 1 8.003999999333336 14.999998000000167 Z" class="highcharts-point" opacity="1"></path><text x="21" style="color:#333333;cursor:pointer;font-size:12px;font-weight:bold;fill:#333333;" text-anchor="start" data-z-index="2" y="15">Series 1</text></g><g class="highcharts-legend-item highcharts-line-series highcharts-color-1 highcharts-series-1" data-z-index="1" transform="translate(103,3)"><path fill="none" d="M 0 11 L 16 11" class="highcharts-graph" stroke="#434348" stroke-width="2"></path><path fill="#434348" d="M 8 7 L 12 11 L 8 15 L 4 11 Z" class="highcharts-point" opacity="1"></path><text x="21" y="15" style="color:#333333;cursor:pointer;font-size:12px;font-weight:bold;fill:#333333;" text-anchor="start" data-z-index="2">Series 2</text></g></g></g></g><g class="highcharts-axis-labels highcharts-xaxis-labels" data-z-index="7"><text x="124.5" style="color:#666666;cursor:default;font-size:11px;fill:#666666;" text-anchor="middle" transform="translate(0,0)" y="343" opacity="1">Jan</text><text x="257.5" style="color:#666666;cursor:default;font-size:11px;fill:#666666;" text-anchor="middle" transform="translate(0,0)" y="343" opacity="1">Feb</text><text x="390.5" style="color:#666666;cursor:default;font-size:11px;fill:#666666;" text-anchor="middle" transform="translate(0,0)" y="343" opacity="1">Mar</text><text x="523.5" style="color:#666666;cursor:default;font-size:11px;fill:#666666;" text-anchor="middle" transform="translate(0,0)" y="343" opacity="1">Apr</text></g><g class="highcharts-axis-labels highcharts-yaxis-labels" data-z-index="7"><text x="43" style="color:#666666;cursor:default;font-size:11px;fill:#666666;" text-anchor="end" transform="translate(0,0)" y="328" opacity="1">0</text><text x="43" style="color:#666666;cursor:default;font-size:11px;fill:#666666;" text-anchor="end" transform="translate(0,0)" y="281" opacity="1">1</text><text x="43" style="color:#666666;cursor:default;font-size:11px;fill:#666666;" text-anchor="end" transform="translate(0,0)" y="235" opacity="1">2</text><text x="43" style="color:#666666;cursor:default;font-size:11px;fill:#666666;" text-anchor="end" transform="translate(0,0)" y="189" opacity="1">3</text><text x="43" style="color:#666666;cursor:default;font-size:11px;fill:#666666;" text-anchor="end" transform="translate(0,0)" y="143" opacity="1">4</text><text x="43" style="color:#666666;cursor:default;font-size:11px;fill:#666666;" text-anchor="end" transform="translate(0,0)" y="97" opacity="1">5</text><text x="43" style="color:#666666;cursor:default;font-size:11px;fill:#666666;" text-anchor="end" transform="translate(0,0)" y="51" opacity="1">6</text></g><text x="590" class="highcharts-credits" text-anchor="end" data-z-index="8" style="cursor:pointer;color:#999999;font-size:9px;fill:#999999;" y="395">Highcharts.com</text></svg>